<mxfile host="app.diagrams.net" modified="2023-05-30T00:47:02.782Z" agent="Mozilla/5.0 (Windows NT 10.0; Win64; x64) AppleWebKit/537.36 (KHTML, like Gecko) Chrome/113.0.0.0 Safari/537.36" etag="13DqGimxZjIbCy0nnAu7" version="21.3.4" type="device">
  <diagram name="페이지-1" id="M11t4wGiWXZoiqlw2nWF">
    <mxGraphModel dx="1501" dy="1111" grid="1" gridSize="10" guides="1" tooltips="1" connect="1" arrows="1" fold="1" page="1" pageScale="1" pageWidth="4681" pageHeight="3300" math="0" shadow="0">
      <root>
        <mxCell id="0" />
        <mxCell id="1" parent="0" />
        <mxCell id="r89rYNRArjP2JZUnkkny-7" style="rounded=0;orthogonalLoop=1;jettySize=auto;html=1;entryX=0.5;entryY=0;entryDx=0;entryDy=0;" edge="1" parent="1" source="r89rYNRArjP2JZUnkkny-1" target="r89rYNRArjP2JZUnkkny-12">
          <mxGeometry relative="1" as="geometry">
            <mxPoint x="830" y="570" as="targetPoint" />
          </mxGeometry>
        </mxCell>
        <mxCell id="r89rYNRArjP2JZUnkkny-8" style="edgeStyle=none;shape=connector;rounded=0;orthogonalLoop=1;jettySize=auto;html=1;entryX=0.5;entryY=0;entryDx=0;entryDy=0;labelBackgroundColor=default;strokeColor=default;fontFamily=Helvetica;fontSize=11;fontColor=default;endArrow=classic;" edge="1" parent="1" source="r89rYNRArjP2JZUnkkny-1" target="r89rYNRArjP2JZUnkkny-3">
          <mxGeometry relative="1" as="geometry" />
        </mxCell>
        <mxCell id="r89rYNRArjP2JZUnkkny-9" style="edgeStyle=none;shape=connector;rounded=0;orthogonalLoop=1;jettySize=auto;html=1;entryX=0.5;entryY=0;entryDx=0;entryDy=0;labelBackgroundColor=default;strokeColor=default;fontFamily=Helvetica;fontSize=11;fontColor=default;endArrow=classic;" edge="1" parent="1" source="r89rYNRArjP2JZUnkkny-1" target="r89rYNRArjP2JZUnkkny-4">
          <mxGeometry relative="1" as="geometry" />
        </mxCell>
        <mxCell id="r89rYNRArjP2JZUnkkny-10" style="edgeStyle=none;shape=connector;rounded=0;orthogonalLoop=1;jettySize=auto;html=1;entryX=0.5;entryY=0;entryDx=0;entryDy=0;labelBackgroundColor=default;strokeColor=default;fontFamily=Helvetica;fontSize=11;fontColor=default;endArrow=classic;" edge="1" parent="1" source="r89rYNRArjP2JZUnkkny-1" target="r89rYNRArjP2JZUnkkny-5">
          <mxGeometry relative="1" as="geometry" />
        </mxCell>
        <mxCell id="r89rYNRArjP2JZUnkkny-11" style="edgeStyle=none;shape=connector;rounded=0;orthogonalLoop=1;jettySize=auto;html=1;entryX=0.5;entryY=0;entryDx=0;entryDy=0;labelBackgroundColor=default;strokeColor=default;fontFamily=Helvetica;fontSize=11;fontColor=default;endArrow=classic;" edge="1" parent="1" source="r89rYNRArjP2JZUnkkny-1" target="r89rYNRArjP2JZUnkkny-6">
          <mxGeometry relative="1" as="geometry" />
        </mxCell>
        <mxCell id="r89rYNRArjP2JZUnkkny-1" value="상품정보" style="whiteSpace=wrap;html=1;align=center;" vertex="1" parent="1">
          <mxGeometry x="1000" y="450" width="100" height="40" as="geometry" />
        </mxCell>
        <mxCell id="r89rYNRArjP2JZUnkkny-3" value="상품명" style="ellipse;whiteSpace=wrap;html=1;align=center;" vertex="1" parent="1">
          <mxGeometry x="890" y="570" width="100" height="40" as="geometry" />
        </mxCell>
        <mxCell id="r89rYNRArjP2JZUnkkny-4" value="품목" style="ellipse;whiteSpace=wrap;html=1;align=center;" vertex="1" parent="1">
          <mxGeometry x="1000" y="570" width="100" height="40" as="geometry" />
        </mxCell>
        <mxCell id="r89rYNRArjP2JZUnkkny-5" value="매입단가" style="ellipse;whiteSpace=wrap;html=1;align=center;" vertex="1" parent="1">
          <mxGeometry x="1110" y="570" width="100" height="40" as="geometry" />
        </mxCell>
        <mxCell id="r89rYNRArjP2JZUnkkny-6" value="매출단가" style="ellipse;whiteSpace=wrap;html=1;align=center;" vertex="1" parent="1">
          <mxGeometry x="1220" y="570" width="100" height="40" as="geometry" />
        </mxCell>
        <mxCell id="r89rYNRArjP2JZUnkkny-12" value="상품코드" style="ellipse;whiteSpace=wrap;html=1;align=center;fontStyle=4;fontFamily=Helvetica;fontSize=11;fontColor=default;" vertex="1" parent="1">
          <mxGeometry x="780" y="570" width="100" height="40" as="geometry" />
        </mxCell>
        <mxCell id="r89rYNRArjP2JZUnkkny-24" style="rounded=0;orthogonalLoop=1;jettySize=auto;html=1;entryX=0.5;entryY=0;entryDx=0;entryDy=0;" edge="1" parent="1" source="r89rYNRArjP2JZUnkkny-29" target="r89rYNRArjP2JZUnkkny-34">
          <mxGeometry relative="1" as="geometry">
            <mxPoint x="190" y="570" as="targetPoint" />
          </mxGeometry>
        </mxCell>
        <mxCell id="r89rYNRArjP2JZUnkkny-25" style="edgeStyle=none;shape=connector;rounded=0;orthogonalLoop=1;jettySize=auto;html=1;entryX=0.5;entryY=0;entryDx=0;entryDy=0;labelBackgroundColor=default;strokeColor=default;fontFamily=Helvetica;fontSize=11;fontColor=default;endArrow=classic;" edge="1" parent="1" source="r89rYNRArjP2JZUnkkny-29" target="r89rYNRArjP2JZUnkkny-30">
          <mxGeometry relative="1" as="geometry" />
        </mxCell>
        <mxCell id="r89rYNRArjP2JZUnkkny-26" style="edgeStyle=none;shape=connector;rounded=0;orthogonalLoop=1;jettySize=auto;html=1;entryX=0.5;entryY=0;entryDx=0;entryDy=0;labelBackgroundColor=default;strokeColor=default;fontFamily=Helvetica;fontSize=11;fontColor=default;endArrow=classic;" edge="1" parent="1" source="r89rYNRArjP2JZUnkkny-29" target="r89rYNRArjP2JZUnkkny-31">
          <mxGeometry relative="1" as="geometry" />
        </mxCell>
        <mxCell id="r89rYNRArjP2JZUnkkny-27" style="edgeStyle=none;shape=connector;rounded=0;orthogonalLoop=1;jettySize=auto;html=1;entryX=0.5;entryY=0;entryDx=0;entryDy=0;labelBackgroundColor=default;strokeColor=default;fontFamily=Helvetica;fontSize=11;fontColor=default;endArrow=classic;" edge="1" parent="1" source="r89rYNRArjP2JZUnkkny-29" target="r89rYNRArjP2JZUnkkny-32">
          <mxGeometry relative="1" as="geometry" />
        </mxCell>
        <mxCell id="r89rYNRArjP2JZUnkkny-29" value="고객정보" style="whiteSpace=wrap;html=1;align=center;" vertex="1" parent="1">
          <mxGeometry x="300" y="450" width="100" height="40" as="geometry" />
        </mxCell>
        <mxCell id="r89rYNRArjP2JZUnkkny-30" value="고객이름" style="ellipse;whiteSpace=wrap;html=1;align=center;" vertex="1" parent="1">
          <mxGeometry x="250" y="570" width="100" height="40" as="geometry" />
        </mxCell>
        <mxCell id="r89rYNRArjP2JZUnkkny-31" value="전화번호" style="ellipse;whiteSpace=wrap;html=1;align=center;" vertex="1" parent="1">
          <mxGeometry x="360" y="570" width="100" height="40" as="geometry" />
        </mxCell>
        <mxCell id="r89rYNRArjP2JZUnkkny-32" value="주소" style="ellipse;whiteSpace=wrap;html=1;align=center;" vertex="1" parent="1">
          <mxGeometry x="470" y="570" width="100" height="40" as="geometry" />
        </mxCell>
        <mxCell id="r89rYNRArjP2JZUnkkny-34" value="고객ID" style="ellipse;whiteSpace=wrap;html=1;align=center;fontStyle=4;fontFamily=Helvetica;fontSize=11;fontColor=default;" vertex="1" parent="1">
          <mxGeometry x="140" y="570" width="100" height="40" as="geometry" />
        </mxCell>
        <mxCell id="r89rYNRArjP2JZUnkkny-35" style="rounded=0;orthogonalLoop=1;jettySize=auto;html=1;entryX=0.5;entryY=0;entryDx=0;entryDy=0;" edge="1" parent="1" source="r89rYNRArjP2JZUnkkny-40" target="r89rYNRArjP2JZUnkkny-45">
          <mxGeometry relative="1" as="geometry">
            <mxPoint x="450" y="380" as="targetPoint" />
          </mxGeometry>
        </mxCell>
        <mxCell id="r89rYNRArjP2JZUnkkny-36" style="edgeStyle=none;shape=connector;rounded=0;orthogonalLoop=1;jettySize=auto;html=1;entryX=0.5;entryY=0;entryDx=0;entryDy=0;labelBackgroundColor=default;strokeColor=default;fontFamily=Helvetica;fontSize=11;fontColor=default;endArrow=classic;" edge="1" parent="1" source="r89rYNRArjP2JZUnkkny-40" target="r89rYNRArjP2JZUnkkny-41">
          <mxGeometry relative="1" as="geometry" />
        </mxCell>
        <mxCell id="r89rYNRArjP2JZUnkkny-37" style="edgeStyle=none;shape=connector;rounded=0;orthogonalLoop=1;jettySize=auto;html=1;entryX=0.5;entryY=0;entryDx=0;entryDy=0;labelBackgroundColor=default;strokeColor=default;fontFamily=Helvetica;fontSize=11;fontColor=default;endArrow=classic;" edge="1" parent="1" source="r89rYNRArjP2JZUnkkny-40" target="r89rYNRArjP2JZUnkkny-42">
          <mxGeometry relative="1" as="geometry" />
        </mxCell>
        <mxCell id="r89rYNRArjP2JZUnkkny-38" style="edgeStyle=none;shape=connector;rounded=0;orthogonalLoop=1;jettySize=auto;html=1;entryX=0.5;entryY=0;entryDx=0;entryDy=0;labelBackgroundColor=default;strokeColor=default;fontFamily=Helvetica;fontSize=11;fontColor=default;endArrow=classic;" edge="1" parent="1" source="r89rYNRArjP2JZUnkkny-40" target="r89rYNRArjP2JZUnkkny-43">
          <mxGeometry relative="1" as="geometry" />
        </mxCell>
        <mxCell id="r89rYNRArjP2JZUnkkny-39" style="edgeStyle=none;shape=connector;rounded=0;orthogonalLoop=1;jettySize=auto;html=1;entryX=0.5;entryY=0;entryDx=0;entryDy=0;labelBackgroundColor=default;strokeColor=default;fontFamily=Helvetica;fontSize=11;fontColor=default;endArrow=classic;" edge="1" parent="1" source="r89rYNRArjP2JZUnkkny-40" target="r89rYNRArjP2JZUnkkny-44">
          <mxGeometry relative="1" as="geometry" />
        </mxCell>
        <mxCell id="r89rYNRArjP2JZUnkkny-50" style="edgeStyle=none;shape=connector;rounded=0;orthogonalLoop=1;jettySize=auto;html=1;entryX=0.5;entryY=0;entryDx=0;entryDy=0;labelBackgroundColor=default;strokeColor=default;fontFamily=Helvetica;fontSize=11;fontColor=default;endArrow=classic;" edge="1" parent="1" source="r89rYNRArjP2JZUnkkny-40" target="r89rYNRArjP2JZUnkkny-46">
          <mxGeometry relative="1" as="geometry">
            <mxPoint x="900" y="379.9999999999998" as="targetPoint" />
          </mxGeometry>
        </mxCell>
        <mxCell id="r89rYNRArjP2JZUnkkny-51" style="edgeStyle=none;shape=connector;rounded=0;orthogonalLoop=1;jettySize=auto;html=1;entryX=0.5;entryY=0;entryDx=0;entryDy=0;labelBackgroundColor=default;strokeColor=default;fontFamily=Helvetica;fontSize=11;fontColor=default;endArrow=classic;" edge="1" parent="1" source="r89rYNRArjP2JZUnkkny-40" target="r89rYNRArjP2JZUnkkny-47">
          <mxGeometry relative="1" as="geometry" />
        </mxCell>
        <mxCell id="r89rYNRArjP2JZUnkkny-40" value="판매내역" style="whiteSpace=wrap;html=1;align=center;" vertex="1" parent="1">
          <mxGeometry x="620" y="260" width="100" height="40" as="geometry" />
        </mxCell>
        <mxCell id="r89rYNRArjP2JZUnkkny-41" value="거래시각" style="ellipse;whiteSpace=wrap;html=1;align=center;" vertex="1" parent="1">
          <mxGeometry x="550" y="380" width="100" height="40" as="geometry" />
        </mxCell>
        <mxCell id="r89rYNRArjP2JZUnkkny-42" value="고객ID" style="ellipse;whiteSpace=wrap;html=1;align=center;" vertex="1" parent="1">
          <mxGeometry x="620" y="420" width="100" height="40" as="geometry" />
        </mxCell>
        <mxCell id="r89rYNRArjP2JZUnkkny-43" value="상품코드" style="ellipse;whiteSpace=wrap;html=1;align=center;" vertex="1" parent="1">
          <mxGeometry x="700" y="380" width="100" height="40" as="geometry" />
        </mxCell>
        <mxCell id="r89rYNRArjP2JZUnkkny-44" value="수량" style="ellipse;whiteSpace=wrap;html=1;align=center;" vertex="1" parent="1">
          <mxGeometry x="800" y="420" width="100" height="40" as="geometry" />
        </mxCell>
        <mxCell id="r89rYNRArjP2JZUnkkny-45" value="SEQ" style="ellipse;whiteSpace=wrap;html=1;align=center;fontStyle=4;fontFamily=Helvetica;fontSize=11;fontColor=default;" vertex="1" parent="1">
          <mxGeometry x="380" y="380" width="100" height="40" as="geometry" />
        </mxCell>
        <mxCell id="r89rYNRArjP2JZUnkkny-46" value="판매단가" style="ellipse;whiteSpace=wrap;html=1;align=center;" vertex="1" parent="1">
          <mxGeometry x="870" y="380" width="100" height="40" as="geometry" />
        </mxCell>
        <mxCell id="r89rYNRArjP2JZUnkkny-47" value="거래일자" style="ellipse;whiteSpace=wrap;html=1;align=center;" vertex="1" parent="1">
          <mxGeometry x="440" y="420" width="100" height="40" as="geometry" />
        </mxCell>
        <mxCell id="r89rYNRArjP2JZUnkkny-49" style="edgeStyle=none;shape=connector;rounded=0;orthogonalLoop=1;jettySize=auto;html=1;exitX=1;exitY=1;exitDx=0;exitDy=0;labelBackgroundColor=default;strokeColor=default;fontFamily=Helvetica;fontSize=11;fontColor=default;endArrow=classic;" edge="1" parent="1" source="r89rYNRArjP2JZUnkkny-47" target="r89rYNRArjP2JZUnkkny-47">
          <mxGeometry relative="1" as="geometry" />
        </mxCell>
        <mxCell id="r89rYNRArjP2JZUnkkny-54" value="" style="edgeStyle=orthogonalEdgeStyle;fontSize=12;html=1;endArrow=ERoneToMany;rounded=0;labelBackgroundColor=default;strokeColor=default;fontFamily=Helvetica;fontColor=default;shape=connector;entryX=0;entryY=0.5;entryDx=0;entryDy=0;exitX=0.5;exitY=0;exitDx=0;exitDy=0;" edge="1" parent="1" source="r89rYNRArjP2JZUnkkny-29" target="r89rYNRArjP2JZUnkkny-40">
          <mxGeometry width="100" height="100" relative="1" as="geometry">
            <mxPoint x="640" y="780" as="sourcePoint" />
            <mxPoint x="740" y="680" as="targetPoint" />
          </mxGeometry>
        </mxCell>
        <mxCell id="r89rYNRArjP2JZUnkkny-55" value="" style="edgeStyle=orthogonalEdgeStyle;fontSize=12;html=1;endArrow=ERoneToMany;rounded=0;labelBackgroundColor=default;strokeColor=default;fontFamily=Helvetica;fontColor=default;shape=connector;exitX=0.5;exitY=0;exitDx=0;exitDy=0;entryX=1;entryY=0.5;entryDx=0;entryDy=0;entryPerimeter=0;" edge="1" parent="1" source="r89rYNRArjP2JZUnkkny-1" target="r89rYNRArjP2JZUnkkny-40">
          <mxGeometry width="100" height="100" relative="1" as="geometry">
            <mxPoint x="640" y="780" as="sourcePoint" />
            <mxPoint x="740" y="680" as="targetPoint" />
          </mxGeometry>
        </mxCell>
      </root>
    </mxGraphModel>
  </diagram>
</mxfile>
